<mxfile host="app.diagrams.net" agent="Mozilla/5.0 (Windows NT 10.0; Win64; x64) AppleWebKit/537.36 (KHTML, like Gecko) Chrome/135.0.0.0 Safari/537.36" version="26.2.15">
  <diagram name="第 1 页" id="lM-eN6MUMU7ywEgUGRPX">
    <mxGraphModel dx="3378" dy="3300" grid="1" gridSize="10" guides="1" tooltips="1" connect="1" arrows="1" fold="1" page="1" pageScale="1" pageWidth="827" pageHeight="1169" math="0" shadow="0">
      <root>
        <mxCell id="0" />
        <mxCell id="1" parent="0" />
        <mxCell id="CGVAX78Kewyjuci-cvpp-1" value="" style="rounded=0;whiteSpace=wrap;html=1;fillColor=#f5f5f5;fontColor=#333333;strokeColor=#666666;" vertex="1" parent="1">
          <mxGeometry x="-627.5" y="-1610" width="580" height="400" as="geometry" />
        </mxCell>
        <mxCell id="CGVAX78Kewyjuci-cvpp-2" value="认证" style="rounded=0;whiteSpace=wrap;html=1;" vertex="1" parent="1">
          <mxGeometry x="-490" width="1230" height="80" as="geometry" />
        </mxCell>
        <mxCell id="CGVAX78Kewyjuci-cvpp-3" value="" style="rounded=0;whiteSpace=wrap;html=1;fillColor=#f5f5f5;strokeColor=#666666;fontColor=#333333;" vertex="1" parent="1">
          <mxGeometry x="-50" y="-1610" width="1470" height="400" as="geometry" />
        </mxCell>
        <mxCell id="CGVAX78Kewyjuci-cvpp-4" style="edgeStyle=orthogonalEdgeStyle;rounded=0;orthogonalLoop=1;jettySize=auto;html=1;entryX=0.25;entryY=0;entryDx=0;entryDy=0;" edge="1" parent="1" source="CGVAX78Kewyjuci-cvpp-5" target="CGVAX78Kewyjuci-cvpp-50">
          <mxGeometry relative="1" as="geometry">
            <Array as="points">
              <mxPoint x="720" y="-1040" />
              <mxPoint x="-292" y="-1040" />
            </Array>
          </mxGeometry>
        </mxCell>
        <mxCell id="CGVAX78Kewyjuci-cvpp-5" value="" style="rounded=0;whiteSpace=wrap;html=1;dashed=1;" vertex="1" parent="1">
          <mxGeometry x="280" y="-807.5" width="880" height="720" as="geometry" />
        </mxCell>
        <mxCell id="CGVAX78Kewyjuci-cvpp-6" value="" style="rounded=0;whiteSpace=wrap;html=1;" vertex="1" parent="1">
          <mxGeometry x="730" y="415" width="500" height="675" as="geometry" />
        </mxCell>
        <mxCell id="CGVAX78Kewyjuci-cvpp-7" value="" style="endArrow=none;dashed=1;html=1;rounded=0;" edge="1" parent="1">
          <mxGeometry width="50" height="50" relative="1" as="geometry">
            <mxPoint x="-1610" y="180" as="sourcePoint" />
            <mxPoint x="1356.666748046875" y="190" as="targetPoint" />
          </mxGeometry>
        </mxCell>
        <mxCell id="CGVAX78Kewyjuci-cvpp-8" value="" style="endArrow=none;dashed=1;html=1;rounded=0;" edge="1" parent="1">
          <mxGeometry width="50" height="50" relative="1" as="geometry">
            <mxPoint x="-120" y="1130" as="sourcePoint" />
            <mxPoint x="-120" y="-1270" as="targetPoint" />
          </mxGeometry>
        </mxCell>
        <mxCell id="CGVAX78Kewyjuci-cvpp-9" value="&lt;font style=&quot;font-size: 24px;&quot;&gt;&lt;b&gt;设计态&lt;/b&gt;&lt;/font&gt;" style="text;html=1;align=center;verticalAlign=middle;resizable=0;points=[];autosize=1;strokeColor=none;fillColor=none;" vertex="1" parent="1">
          <mxGeometry x="-245" y="140" width="100" height="40" as="geometry" />
        </mxCell>
        <mxCell id="CGVAX78Kewyjuci-cvpp-10" value="&lt;font style=&quot;font-size: 24px;&quot;&gt;&lt;b&gt;运行态&lt;/b&gt;&lt;/font&gt;" style="text;html=1;align=center;verticalAlign=middle;resizable=0;points=[];autosize=1;strokeColor=none;fillColor=none;" vertex="1" parent="1">
          <mxGeometry x="-95" y="140" width="100" height="40" as="geometry" />
        </mxCell>
        <mxCell id="CGVAX78Kewyjuci-cvpp-11" value="&lt;font style=&quot;font-size: 24px;&quot;&gt;&lt;b&gt;租户&lt;/b&gt;&lt;/font&gt;" style="text;html=1;align=center;verticalAlign=middle;resizable=0;points=[];autosize=1;strokeColor=none;fillColor=none;" vertex="1" parent="1">
          <mxGeometry x="-945" y="130" width="70" height="40" as="geometry" />
        </mxCell>
        <mxCell id="CGVAX78Kewyjuci-cvpp-12" value="&lt;font style=&quot;font-size: 24px;&quot;&gt;&lt;b&gt;ESP平台&lt;/b&gt;&lt;/font&gt;" style="text;html=1;align=center;verticalAlign=middle;resizable=0;points=[];autosize=1;strokeColor=none;fillColor=none;" vertex="1" parent="1">
          <mxGeometry x="-980" y="200" width="120" height="40" as="geometry" />
        </mxCell>
        <mxCell id="CGVAX78Kewyjuci-cvpp-13" style="edgeStyle=orthogonalEdgeStyle;rounded=0;orthogonalLoop=1;jettySize=auto;html=1;" edge="1" parent="1" source="CGVAX78Kewyjuci-cvpp-14" target="CGVAX78Kewyjuci-cvpp-17">
          <mxGeometry relative="1" as="geometry" />
        </mxCell>
        <mxCell id="CGVAX78Kewyjuci-cvpp-14" value="API编排" style="rounded=0;whiteSpace=wrap;html=1;" vertex="1" parent="1">
          <mxGeometry x="-340" y="637.5" width="120" height="90" as="geometry" />
        </mxCell>
        <mxCell id="CGVAX78Kewyjuci-cvpp-15" style="edgeStyle=orthogonalEdgeStyle;rounded=0;orthogonalLoop=1;jettySize=auto;html=1;" edge="1" parent="1" source="CGVAX78Kewyjuci-cvpp-16" target="CGVAX78Kewyjuci-cvpp-18">
          <mxGeometry relative="1" as="geometry" />
        </mxCell>
        <mxCell id="CGVAX78Kewyjuci-cvpp-16" value="应用管理-设计态" style="rounded=0;whiteSpace=wrap;html=1;" vertex="1" parent="1">
          <mxGeometry x="-340" y="790" width="120" height="60" as="geometry" />
        </mxCell>
        <mxCell id="CGVAX78Kewyjuci-cvpp-17" value="API服务中心" style="rounded=0;whiteSpace=wrap;html=1;" vertex="1" parent="1">
          <mxGeometry x="-60" y="640" width="120" height="85" as="geometry" />
        </mxCell>
        <mxCell id="CGVAX78Kewyjuci-cvpp-18" value="应用管理-运行态" style="rounded=0;whiteSpace=wrap;html=1;" vertex="1" parent="1">
          <mxGeometry x="-65" y="775" width="130" height="90" as="geometry" />
        </mxCell>
        <mxCell id="CGVAX78Kewyjuci-cvpp-19" value="mysql" style="shape=cylinder3;whiteSpace=wrap;html=1;boundedLbl=1;backgroundOutline=1;size=15;" vertex="1" parent="1">
          <mxGeometry x="140" y="450" width="60" height="80" as="geometry" />
        </mxCell>
        <mxCell id="CGVAX78Kewyjuci-cvpp-20" value="注册" style="text;html=1;align=center;verticalAlign=middle;resizable=0;points=[];autosize=1;strokeColor=#d6b656;fillColor=#fff2cc;" vertex="1" parent="1">
          <mxGeometry x="-340" y="697.5" width="50" height="30" as="geometry" />
        </mxCell>
        <mxCell id="CGVAX78Kewyjuci-cvpp-21" value="编排" style="text;html=1;align=center;verticalAlign=middle;resizable=0;points=[];autosize=1;strokeColor=#d6b656;fillColor=#fff2cc;" vertex="1" parent="1">
          <mxGeometry x="-270" y="697.5" width="50" height="30" as="geometry" />
        </mxCell>
        <mxCell id="CGVAX78Kewyjuci-cvpp-22" value="调用" style="text;html=1;align=center;verticalAlign=middle;resizable=0;points=[];autosize=1;strokeColor=#d6b656;fillColor=#fff2cc;" vertex="1" parent="1">
          <mxGeometry x="10" y="695" width="50" height="30" as="geometry" />
        </mxCell>
        <mxCell id="CGVAX78Kewyjuci-cvpp-23" style="edgeStyle=orthogonalEdgeStyle;rounded=0;orthogonalLoop=1;jettySize=auto;html=1;entryX=0.5;entryY=0;entryDx=0;entryDy=0;" edge="1" parent="1" source="CGVAX78Kewyjuci-cvpp-24" target="CGVAX78Kewyjuci-cvpp-14">
          <mxGeometry relative="1" as="geometry" />
        </mxCell>
        <mxCell id="CGVAX78Kewyjuci-cvpp-24" value="数据源服务" style="rounded=0;whiteSpace=wrap;html=1;" vertex="1" parent="1">
          <mxGeometry x="-60" y="460" width="120" height="60" as="geometry" />
        </mxCell>
        <mxCell id="CGVAX78Kewyjuci-cvpp-25" value="" style="endArrow=none;dashed=1;html=1;dashPattern=1 3;strokeWidth=2;rounded=0;entryX=0;entryY=0.5;entryDx=0;entryDy=0;entryPerimeter=0;exitX=1;exitY=0.5;exitDx=0;exitDy=0;" edge="1" parent="1" source="CGVAX78Kewyjuci-cvpp-24" target="CGVAX78Kewyjuci-cvpp-19">
          <mxGeometry width="50" height="50" relative="1" as="geometry">
            <mxPoint x="70" y="520" as="sourcePoint" />
            <mxPoint x="120" y="470" as="targetPoint" />
          </mxGeometry>
        </mxCell>
        <mxCell id="CGVAX78Kewyjuci-cvpp-26" value="生成原子接口并注册" style="text;html=1;align=center;verticalAlign=middle;resizable=0;points=[];autosize=1;strokeColor=none;fillColor=none;" vertex="1" parent="1">
          <mxGeometry x="-270" y="460" width="130" height="30" as="geometry" />
        </mxCell>
        <mxCell id="CGVAX78Kewyjuci-cvpp-27" value="nacos配置" style="text;html=1;align=center;verticalAlign=middle;resizable=0;points=[];autosize=1;strokeColor=none;fillColor=none;" vertex="1" parent="1">
          <mxGeometry x="60" y="460" width="80" height="30" as="geometry" />
        </mxCell>
        <mxCell id="CGVAX78Kewyjuci-cvpp-28" style="edgeStyle=orthogonalEdgeStyle;rounded=0;orthogonalLoop=1;jettySize=auto;html=1;entryX=0.5;entryY=1;entryDx=0;entryDy=0;" edge="1" parent="1" source="CGVAX78Kewyjuci-cvpp-29" target="CGVAX78Kewyjuci-cvpp-16">
          <mxGeometry relative="1" as="geometry">
            <Array as="points">
              <mxPoint x="180" y="920" />
              <mxPoint x="-280" y="920" />
            </Array>
          </mxGeometry>
        </mxCell>
        <mxCell id="CGVAX78Kewyjuci-cvpp-29" value="资源池" style="rounded=0;whiteSpace=wrap;html=1;" vertex="1" parent="1">
          <mxGeometry x="140" y="650" width="90" height="212.5" as="geometry" />
        </mxCell>
        <mxCell id="CGVAX78Kewyjuci-cvpp-30" value="" style="endArrow=none;dashed=1;html=1;dashPattern=1 3;strokeWidth=2;rounded=0;exitX=1;exitY=0.5;exitDx=0;exitDy=0;entryX=0;entryY=0.147;entryDx=0;entryDy=0;entryPerimeter=0;" edge="1" parent="1" source="CGVAX78Kewyjuci-cvpp-17" target="CGVAX78Kewyjuci-cvpp-29">
          <mxGeometry width="50" height="50" relative="1" as="geometry">
            <mxPoint x="90" y="730" as="sourcePoint" />
            <mxPoint x="140" y="680" as="targetPoint" />
          </mxGeometry>
        </mxCell>
        <mxCell id="CGVAX78Kewyjuci-cvpp-31" value="" style="endArrow=none;dashed=1;html=1;dashPattern=1 3;strokeWidth=2;rounded=0;entryX=-0.007;entryY=0.806;entryDx=0;entryDy=0;entryPerimeter=0;exitX=1;exitY=0.5;exitDx=0;exitDy=0;" edge="1" parent="1" source="CGVAX78Kewyjuci-cvpp-18" target="CGVAX78Kewyjuci-cvpp-29">
          <mxGeometry width="50" height="50" relative="1" as="geometry">
            <mxPoint x="80" y="850" as="sourcePoint" />
            <mxPoint x="130" y="800" as="targetPoint" />
          </mxGeometry>
        </mxCell>
        <mxCell id="CGVAX78Kewyjuci-cvpp-32" value="发布" style="text;html=1;align=center;verticalAlign=middle;resizable=0;points=[];autosize=1;strokeColor=none;fillColor=none;" vertex="1" parent="1">
          <mxGeometry x="-215" y="648" width="50" height="30" as="geometry" />
        </mxCell>
        <mxCell id="CGVAX78Kewyjuci-cvpp-33" value="发布" style="text;html=1;align=center;verticalAlign=middle;resizable=0;points=[];autosize=1;strokeColor=none;fillColor=none;" vertex="1" parent="1">
          <mxGeometry x="-215" y="780" width="50" height="30" as="geometry" />
        </mxCell>
        <mxCell id="CGVAX78Kewyjuci-cvpp-34" value="应用开发" style="text;html=1;align=center;verticalAlign=middle;resizable=0;points=[];autosize=1;strokeColor=none;fillColor=none;" vertex="1" parent="1">
          <mxGeometry x="-280" y="888" width="70" height="30" as="geometry" />
        </mxCell>
        <mxCell id="CGVAX78Kewyjuci-cvpp-35" value="规则引擎" style="rounded=0;whiteSpace=wrap;html=1;fillColor=#f5f5f5;strokeColor=#666666;fontColor=#333333;" vertex="1" parent="1">
          <mxGeometry x="1037.5" y="765" width="120" height="60" as="geometry" />
        </mxCell>
        <mxCell id="CGVAX78Kewyjuci-cvpp-36" value="文件服务" style="rounded=0;whiteSpace=wrap;html=1;fillColor=#dae8fc;strokeColor=#6c8ebf;" vertex="1" parent="1">
          <mxGeometry x="785" y="590" width="120" height="60" as="geometry" />
        </mxCell>
        <mxCell id="CGVAX78Kewyjuci-cvpp-37" value="消息服务" style="rounded=0;whiteSpace=wrap;html=1;fillColor=#dae8fc;strokeColor=#6c8ebf;" vertex="1" parent="1">
          <mxGeometry x="785" y="769.9999999999998" width="120" height="60" as="geometry" />
        </mxCell>
        <mxCell id="CGVAX78Kewyjuci-cvpp-38" style="edgeStyle=orthogonalEdgeStyle;rounded=0;orthogonalLoop=1;jettySize=auto;html=1;exitX=0.5;exitY=1;exitDx=0;exitDy=0;" edge="1" parent="1" source="CGVAX78Kewyjuci-cvpp-36" target="CGVAX78Kewyjuci-cvpp-36">
          <mxGeometry relative="1" as="geometry" />
        </mxCell>
        <mxCell id="CGVAX78Kewyjuci-cvpp-39" value="任务调度服务" style="rounded=0;whiteSpace=wrap;html=1;fillColor=#dae8fc;strokeColor=#6c8ebf;" vertex="1" parent="1">
          <mxGeometry x="785" y="675" width="120" height="60" as="geometry" />
        </mxCell>
        <mxCell id="CGVAX78Kewyjuci-cvpp-40" value="工单服务" style="rounded=0;whiteSpace=wrap;html=1;fillColor=#f5f5f5;strokeColor=#666666;fontColor=#333333;" vertex="1" parent="1">
          <mxGeometry x="1037.5" y="675" width="120" height="60" as="geometry" />
        </mxCell>
        <mxCell id="CGVAX78Kewyjuci-cvpp-41" value="SLA服务" style="rounded=0;whiteSpace=wrap;html=1;fillColor=#f5f5f5;strokeColor=#666666;fontColor=#333333;" vertex="1" parent="1">
          <mxGeometry x="1037.5" y="573" width="120" height="60" as="geometry" />
        </mxCell>
        <mxCell id="CGVAX78Kewyjuci-cvpp-42" value="略。。。" style="rounded=0;whiteSpace=wrap;html=1;fillColor=#f5f5f5;strokeColor=#666666;fontColor=#333333;" vertex="1" parent="1">
          <mxGeometry x="1037.5" y="975" width="120" height="60" as="geometry" />
        </mxCell>
        <mxCell id="CGVAX78Kewyjuci-cvpp-43" value="链路日志" style="rounded=0;whiteSpace=wrap;html=1;fillColor=#dae8fc;strokeColor=#6c8ebf;" vertex="1" parent="1">
          <mxGeometry x="777.5" y="862.5" width="120" height="60" as="geometry" />
        </mxCell>
        <mxCell id="CGVAX78Kewyjuci-cvpp-44" value="角色桌面" style="text;html=1;align=center;verticalAlign=middle;resizable=0;points=[];autosize=1;strokeColor=#d6b656;fillColor=#fff2cc;" vertex="1" parent="1">
          <mxGeometry x="-5" y="832.5" width="70" height="30" as="geometry" />
        </mxCell>
        <mxCell id="CGVAX78Kewyjuci-cvpp-45" style="edgeStyle=orthogonalEdgeStyle;rounded=0;orthogonalLoop=1;jettySize=auto;html=1;entryX=0.128;entryY=0.006;entryDx=0;entryDy=0;entryPerimeter=0;" edge="1" parent="1" source="CGVAX78Kewyjuci-cvpp-6" target="CGVAX78Kewyjuci-cvpp-14">
          <mxGeometry relative="1" as="geometry">
            <Array as="points">
              <mxPoint x="760" y="400" />
              <mxPoint x="-325" y="400" />
            </Array>
          </mxGeometry>
        </mxCell>
        <mxCell id="CGVAX78Kewyjuci-cvpp-46" value="注册" style="text;html=1;align=center;verticalAlign=middle;resizable=0;points=[];autosize=1;strokeColor=none;fillColor=none;" vertex="1" parent="1">
          <mxGeometry x="110" y="370" width="50" height="30" as="geometry" />
        </mxCell>
        <mxCell id="CGVAX78Kewyjuci-cvpp-47" value="&lt;font style=&quot;font-size: 24px;&quot;&gt;&lt;b&gt;公共服务&lt;/b&gt;&lt;/font&gt;" style="text;html=1;align=center;verticalAlign=middle;resizable=0;points=[];autosize=1;strokeColor=none;fillColor=none;" vertex="1" parent="1">
          <mxGeometry x="937.5" y="425" width="120" height="40" as="geometry" />
        </mxCell>
        <mxCell id="CGVAX78Kewyjuci-cvpp-48" value="" style="rounded=0;whiteSpace=wrap;html=1;" vertex="1" parent="1">
          <mxGeometry x="785" y="-690" width="260" height="560" as="geometry" />
        </mxCell>
        <mxCell id="CGVAX78Kewyjuci-cvpp-49" style="edgeStyle=orthogonalEdgeStyle;rounded=0;orthogonalLoop=1;jettySize=auto;html=1;" edge="1" parent="1" source="CGVAX78Kewyjuci-cvpp-50" target="CGVAX78Kewyjuci-cvpp-53">
          <mxGeometry relative="1" as="geometry" />
        </mxCell>
        <mxCell id="CGVAX78Kewyjuci-cvpp-50" value="API服务-设计态" style="rounded=0;whiteSpace=wrap;html=1;" vertex="1" parent="1">
          <mxGeometry x="-322.5" y="-747.5" width="120" height="90" as="geometry" />
        </mxCell>
        <mxCell id="CGVAX78Kewyjuci-cvpp-51" style="edgeStyle=orthogonalEdgeStyle;rounded=0;orthogonalLoop=1;jettySize=auto;html=1;" edge="1" parent="1" source="CGVAX78Kewyjuci-cvpp-52" target="CGVAX78Kewyjuci-cvpp-54">
          <mxGeometry relative="1" as="geometry" />
        </mxCell>
        <mxCell id="CGVAX78Kewyjuci-cvpp-52" value="应用管理-设计态" style="rounded=0;whiteSpace=wrap;html=1;" vertex="1" parent="1">
          <mxGeometry x="-330" y="-603.75" width="130" height="83.75" as="geometry" />
        </mxCell>
        <mxCell id="CGVAX78Kewyjuci-cvpp-53" value="API服务-运行态" style="rounded=0;whiteSpace=wrap;html=1;" vertex="1" parent="1">
          <mxGeometry x="-42.5" y="-745" width="120" height="85" as="geometry" />
        </mxCell>
        <mxCell id="CGVAX78Kewyjuci-cvpp-54" value="应用管理-运行态" style="rounded=0;whiteSpace=wrap;html=1;" vertex="1" parent="1">
          <mxGeometry x="-47.5" y="-607.5" width="145" height="95" as="geometry" />
        </mxCell>
        <mxCell id="CGVAX78Kewyjuci-cvpp-55" value="mysql" style="shape=cylinder3;whiteSpace=wrap;html=1;boundedLbl=1;backgroundOutline=1;size=15;" vertex="1" parent="1">
          <mxGeometry x="180" y="-935" width="60" height="80" as="geometry" />
        </mxCell>
        <mxCell id="CGVAX78Kewyjuci-cvpp-56" value="注册" style="text;html=1;align=center;verticalAlign=middle;resizable=0;points=[];autosize=1;strokeColor=#d6b656;fillColor=#fff2cc;" vertex="1" parent="1">
          <mxGeometry x="-322.5" y="-687.5" width="50" height="30" as="geometry" />
        </mxCell>
        <mxCell id="CGVAX78Kewyjuci-cvpp-57" value="编排" style="text;html=1;align=center;verticalAlign=middle;resizable=0;points=[];autosize=1;strokeColor=#666666;fillColor=#f5f5f5;fontColor=#333333;" vertex="1" parent="1">
          <mxGeometry x="-252.5" y="-687.5" width="50" height="30" as="geometry" />
        </mxCell>
        <mxCell id="CGVAX78Kewyjuci-cvpp-58" value="调用" style="text;html=1;align=center;verticalAlign=middle;resizable=0;points=[];autosize=1;strokeColor=#d6b656;fillColor=#fff2cc;" vertex="1" parent="1">
          <mxGeometry x="27.5" y="-690" width="50" height="30" as="geometry" />
        </mxCell>
        <mxCell id="CGVAX78Kewyjuci-cvpp-59" style="edgeStyle=orthogonalEdgeStyle;rounded=0;orthogonalLoop=1;jettySize=auto;html=1;entryX=0.5;entryY=0;entryDx=0;entryDy=0;" edge="1" parent="1" source="CGVAX78Kewyjuci-cvpp-60" target="CGVAX78Kewyjuci-cvpp-50">
          <mxGeometry relative="1" as="geometry" />
        </mxCell>
        <mxCell id="CGVAX78Kewyjuci-cvpp-60" value="数据源服务" style="rounded=0;whiteSpace=wrap;html=1;" vertex="1" parent="1">
          <mxGeometry x="-42.5" y="-925" width="120" height="60" as="geometry" />
        </mxCell>
        <mxCell id="CGVAX78Kewyjuci-cvpp-61" value="" style="endArrow=none;dashed=1;html=1;dashPattern=1 3;strokeWidth=2;rounded=0;entryX=0;entryY=0.5;entryDx=0;entryDy=0;entryPerimeter=0;exitX=1;exitY=0.5;exitDx=0;exitDy=0;" edge="1" parent="1" source="CGVAX78Kewyjuci-cvpp-60" target="CGVAX78Kewyjuci-cvpp-55">
          <mxGeometry width="50" height="50" relative="1" as="geometry">
            <mxPoint x="87.5" y="-865" as="sourcePoint" />
            <mxPoint x="137.5" y="-915" as="targetPoint" />
          </mxGeometry>
        </mxCell>
        <mxCell id="CGVAX78Kewyjuci-cvpp-62" value="2、生成原子接口并注册" style="text;html=1;align=center;verticalAlign=middle;resizable=0;points=[];autosize=1;strokeColor=none;fillColor=none;" vertex="1" parent="1">
          <mxGeometry x="-262.5" y="-925" width="150" height="30" as="geometry" />
        </mxCell>
        <mxCell id="CGVAX78Kewyjuci-cvpp-63" value="1、nacos配置" style="text;html=1;align=center;verticalAlign=middle;resizable=0;points=[];autosize=1;strokeColor=none;fillColor=none;" vertex="1" parent="1">
          <mxGeometry x="80" y="-925" width="100" height="30" as="geometry" />
        </mxCell>
        <mxCell id="CGVAX78Kewyjuci-cvpp-64" style="edgeStyle=orthogonalEdgeStyle;rounded=0;orthogonalLoop=1;jettySize=auto;html=1;entryX=0.5;entryY=1;entryDx=0;entryDy=0;" edge="1" parent="1" source="CGVAX78Kewyjuci-cvpp-65" target="CGVAX78Kewyjuci-cvpp-52">
          <mxGeometry relative="1" as="geometry">
            <Array as="points">
              <mxPoint x="198" y="-430" />
              <mxPoint x="-265" y="-430" />
            </Array>
          </mxGeometry>
        </mxCell>
        <mxCell id="CGVAX78Kewyjuci-cvpp-65" value="资源池" style="rounded=0;whiteSpace=wrap;html=1;" vertex="1" parent="1">
          <mxGeometry x="157.5" y="-735" width="90" height="212.5" as="geometry" />
        </mxCell>
        <mxCell id="CGVAX78Kewyjuci-cvpp-66" value="" style="endArrow=none;dashed=1;html=1;dashPattern=1 3;strokeWidth=2;rounded=0;exitX=1;exitY=0.5;exitDx=0;exitDy=0;entryX=0;entryY=0.147;entryDx=0;entryDy=0;entryPerimeter=0;" edge="1" parent="1" source="CGVAX78Kewyjuci-cvpp-53" target="CGVAX78Kewyjuci-cvpp-65">
          <mxGeometry width="50" height="50" relative="1" as="geometry">
            <mxPoint x="107.5" y="-655" as="sourcePoint" />
            <mxPoint x="157.5" y="-705" as="targetPoint" />
          </mxGeometry>
        </mxCell>
        <mxCell id="CGVAX78Kewyjuci-cvpp-67" value="" style="endArrow=none;dashed=1;html=1;dashPattern=1 3;strokeWidth=2;rounded=0;entryX=-0.007;entryY=0.806;entryDx=0;entryDy=0;entryPerimeter=0;exitX=1;exitY=0.5;exitDx=0;exitDy=0;" edge="1" parent="1" source="CGVAX78Kewyjuci-cvpp-54" target="CGVAX78Kewyjuci-cvpp-65">
          <mxGeometry width="50" height="50" relative="1" as="geometry">
            <mxPoint x="97.5" y="-535" as="sourcePoint" />
            <mxPoint x="147.5" y="-585" as="targetPoint" />
          </mxGeometry>
        </mxCell>
        <mxCell id="CGVAX78Kewyjuci-cvpp-68" value="4、发布API" style="text;html=1;align=center;verticalAlign=middle;resizable=0;points=[];autosize=1;strokeColor=none;fillColor=none;" vertex="1" parent="1">
          <mxGeometry x="-205" y="-735" width="90" height="30" as="geometry" />
        </mxCell>
        <mxCell id="CGVAX78Kewyjuci-cvpp-69" value="7、发布应用" style="text;html=1;align=center;verticalAlign=middle;resizable=0;points=[];autosize=1;strokeColor=none;fillColor=none;" vertex="1" parent="1">
          <mxGeometry x="-202.5" y="-587" width="90" height="30" as="geometry" />
        </mxCell>
        <mxCell id="CGVAX78Kewyjuci-cvpp-70" value="6、应用开发（本期没有低码，可以建空的页面，用高码替换）" style="text;html=1;align=center;verticalAlign=middle;resizable=0;points=[];autosize=1;strokeColor=none;fillColor=none;" vertex="1" parent="1">
          <mxGeometry x="-670" y="-547" width="350" height="30" as="geometry" />
        </mxCell>
        <mxCell id="CGVAX78Kewyjuci-cvpp-71" value="大文件服务" style="rounded=0;whiteSpace=wrap;html=1;fillColor=#dae8fc;strokeColor=#6c8ebf;" vertex="1" parent="1">
          <mxGeometry x="805" y="-657.5" width="120" height="60" as="geometry" />
        </mxCell>
        <mxCell id="CGVAX78Kewyjuci-cvpp-72" value="消息服务" style="rounded=0;whiteSpace=wrap;html=1;fillColor=#dae8fc;strokeColor=#6c8ebf;" vertex="1" parent="1">
          <mxGeometry x="805" y="-330.0000000000002" width="120" height="60" as="geometry" />
        </mxCell>
        <mxCell id="CGVAX78Kewyjuci-cvpp-73" style="edgeStyle=orthogonalEdgeStyle;rounded=0;orthogonalLoop=1;jettySize=auto;html=1;exitX=0.5;exitY=1;exitDx=0;exitDy=0;" edge="1" parent="1" source="CGVAX78Kewyjuci-cvpp-71" target="CGVAX78Kewyjuci-cvpp-71">
          <mxGeometry relative="1" as="geometry" />
        </mxCell>
        <mxCell id="CGVAX78Kewyjuci-cvpp-74" value="任务调度服务" style="rounded=0;whiteSpace=wrap;html=1;fillColor=#dae8fc;strokeColor=#6c8ebf;" vertex="1" parent="1">
          <mxGeometry x="805" y="-444.5" width="120" height="60" as="geometry" />
        </mxCell>
        <mxCell id="CGVAX78Kewyjuci-cvpp-75" value="日志服务" style="rounded=0;whiteSpace=wrap;html=1;fillColor=#dae8fc;strokeColor=#6c8ebf;" vertex="1" parent="1">
          <mxGeometry x="805" y="-237" width="120" height="60" as="geometry" />
        </mxCell>
        <mxCell id="CGVAX78Kewyjuci-cvpp-76" style="edgeStyle=orthogonalEdgeStyle;rounded=0;orthogonalLoop=1;jettySize=auto;html=1;" edge="1" parent="1" source="CGVAX78Kewyjuci-cvpp-77" target="CGVAX78Kewyjuci-cvpp-108">
          <mxGeometry relative="1" as="geometry" />
        </mxCell>
        <mxCell id="CGVAX78Kewyjuci-cvpp-77" value="流程引擎-设计态" style="rounded=0;whiteSpace=wrap;html=1;" vertex="1" parent="1">
          <mxGeometry x="-330" y="-229.5" width="117.5" height="80" as="geometry" />
        </mxCell>
        <mxCell id="CGVAX78Kewyjuci-cvpp-78" value="菜单" style="text;html=1;align=center;verticalAlign=middle;resizable=0;points=[];autosize=1;strokeColor=#d6b656;fillColor=#fff2cc;" vertex="1" parent="1">
          <mxGeometry x="-255" y="-552.5" width="50" height="30" as="geometry" />
        </mxCell>
        <mxCell id="CGVAX78Kewyjuci-cvpp-79" value="注册" style="text;html=1;align=center;verticalAlign=middle;resizable=0;points=[];autosize=1;strokeColor=none;fillColor=none;" vertex="1" parent="1">
          <mxGeometry x="650" y="-1080" width="50" height="30" as="geometry" />
        </mxCell>
        <mxCell id="CGVAX78Kewyjuci-cvpp-80" value="&lt;font style=&quot;font-size: 24px;&quot;&gt;&lt;b&gt;公共服务&lt;/b&gt;&lt;/font&gt;" style="text;html=1;align=center;verticalAlign=middle;resizable=0;points=[];autosize=1;strokeColor=none;fillColor=none;" vertex="1" parent="1">
          <mxGeometry x="925" y="-690" width="120" height="40" as="geometry" />
        </mxCell>
        <mxCell id="CGVAX78Kewyjuci-cvpp-81" value="仿真云服务" style="rounded=0;whiteSpace=wrap;html=1;fillColor=#f8cecc;strokeColor=#b85450;" vertex="1" parent="1">
          <mxGeometry x="350" y="-667" width="210" height="516.25" as="geometry" />
        </mxCell>
        <mxCell id="CGVAX78Kewyjuci-cvpp-82" value="点工具管理" style="rounded=0;whiteSpace=wrap;html=1;fillColor=#f8cecc;strokeColor=#b85450;" vertex="1" parent="1">
          <mxGeometry x="597.5" y="-284.5" width="112.5" height="134.5" as="geometry" />
        </mxCell>
        <mxCell id="CGVAX78Kewyjuci-cvpp-83" value="&lt;b&gt;&lt;font style=&quot;font-size: 24px;&quot;&gt;租户应用：仿真云平台&lt;/font&gt;&lt;/b&gt;" style="text;html=1;align=center;verticalAlign=middle;resizable=0;points=[];autosize=1;strokeColor=none;fillColor=none;" vertex="1" parent="1">
          <mxGeometry x="-435" y="-1690" width="260" height="40" as="geometry" />
        </mxCell>
        <mxCell id="CGVAX78Kewyjuci-cvpp-84" value="流程管理" style="rounded=0;whiteSpace=wrap;html=1;fillColor=#fff2cc;strokeColor=#d6b656;" vertex="1" parent="1">
          <mxGeometry x="1085" y="-1500" width="125" height="160" as="geometry" />
        </mxCell>
        <mxCell id="CGVAX78Kewyjuci-cvpp-85" style="edgeStyle=orthogonalEdgeStyle;rounded=0;orthogonalLoop=1;jettySize=auto;html=1;entryX=0;entryY=0.5;entryDx=0;entryDy=0;" edge="1" parent="1" source="CGVAX78Kewyjuci-cvpp-86" target="CGVAX78Kewyjuci-cvpp-88">
          <mxGeometry relative="1" as="geometry" />
        </mxCell>
        <mxCell id="CGVAX78Kewyjuci-cvpp-86" value="需求管理" style="rounded=0;whiteSpace=wrap;html=1;fillColor=#fff2cc;strokeColor=#d6b656;" vertex="1" parent="1">
          <mxGeometry x="462.5" y="-1580" width="120" height="60" as="geometry" />
        </mxCell>
        <mxCell id="CGVAX78Kewyjuci-cvpp-87" value="项目管理" style="rounded=0;whiteSpace=wrap;html=1;fillColor=#fff2cc;strokeColor=#d6b656;" vertex="1" parent="1">
          <mxGeometry x="260" y="-1580" width="120" height="60" as="geometry" />
        </mxCell>
        <mxCell id="CGVAX78Kewyjuci-cvpp-88" value="仿真任务管理" style="rounded=0;whiteSpace=wrap;html=1;fillColor=#fff2cc;strokeColor=#d6b656;" vertex="1" parent="1">
          <mxGeometry x="740" y="-1580" width="120" height="60" as="geometry" />
        </mxCell>
        <mxCell id="CGVAX78Kewyjuci-cvpp-89" value="点工具管理" style="rounded=0;whiteSpace=wrap;html=1;fillColor=#fff2cc;strokeColor=#d6b656;" vertex="1" parent="1">
          <mxGeometry x="-555" y="-1495" width="120" height="60" as="geometry" />
        </mxCell>
        <mxCell id="CGVAX78Kewyjuci-cvpp-90" value="仿真工程师" style="shape=umlActor;verticalLabelPosition=bottom;verticalAlign=top;html=1;outlineConnect=0;fillColor=#f8cecc;strokeColor=#b85450;" vertex="1" parent="1">
          <mxGeometry x="875" y="-1460" width="30" height="60" as="geometry" />
        </mxCell>
        <mxCell id="CGVAX78Kewyjuci-cvpp-91" value="仿真主管" style="shape=umlActor;verticalLabelPosition=bottom;verticalAlign=top;html=1;outlineConnect=0;fillColor=#f8cecc;strokeColor=#b85450;" vertex="1" parent="1">
          <mxGeometry x="500" y="-1390" width="30" height="60" as="geometry" />
        </mxCell>
        <mxCell id="CGVAX78Kewyjuci-cvpp-92" style="edgeStyle=orthogonalEdgeStyle;rounded=0;orthogonalLoop=1;jettySize=auto;html=1;" edge="1" parent="1" source="CGVAX78Kewyjuci-cvpp-93" target="CGVAX78Kewyjuci-cvpp-87">
          <mxGeometry relative="1" as="geometry" />
        </mxCell>
        <mxCell id="CGVAX78Kewyjuci-cvpp-93" value="仿真项目经理" style="shape=umlActor;verticalLabelPosition=bottom;verticalAlign=top;html=1;outlineConnect=0;fillColor=#f8cecc;strokeColor=#b85450;" vertex="1" parent="1">
          <mxGeometry x="305" y="-1400" width="30" height="60" as="geometry" />
        </mxCell>
        <mxCell id="CGVAX78Kewyjuci-cvpp-94" value="1、新建项目" style="text;html=1;align=center;verticalAlign=middle;resizable=0;points=[];autosize=1;strokeColor=none;fillColor=none;" vertex="1" parent="1">
          <mxGeometry x="290" y="-1460" width="90" height="30" as="geometry" />
        </mxCell>
        <mxCell id="CGVAX78Kewyjuci-cvpp-95" style="edgeStyle=orthogonalEdgeStyle;rounded=0;orthogonalLoop=1;jettySize=auto;html=1;entryX=0.444;entryY=0.956;entryDx=0;entryDy=0;entryPerimeter=0;" edge="1" parent="1" source="CGVAX78Kewyjuci-cvpp-91" target="CGVAX78Kewyjuci-cvpp-86">
          <mxGeometry relative="1" as="geometry" />
        </mxCell>
        <mxCell id="CGVAX78Kewyjuci-cvpp-96" value="2、新建需求" style="text;html=1;align=center;verticalAlign=middle;resizable=0;points=[];autosize=1;strokeColor=none;fillColor=none;" vertex="1" parent="1">
          <mxGeometry x="432.5" y="-1490" width="90" height="30" as="geometry" />
        </mxCell>
        <mxCell id="CGVAX78Kewyjuci-cvpp-97" value="" style="endArrow=none;dashed=1;html=1;dashPattern=1 3;strokeWidth=2;rounded=0;exitX=0.5;exitY=0.5;exitDx=0;exitDy=0;exitPerimeter=0;entryX=1;entryY=0.5;entryDx=0;entryDy=0;" edge="1" parent="1" source="CGVAX78Kewyjuci-cvpp-91" target="CGVAX78Kewyjuci-cvpp-87">
          <mxGeometry width="50" height="50" relative="1" as="geometry">
            <mxPoint x="362.5" y="-1440" as="sourcePoint" />
            <mxPoint x="412.5" y="-1490" as="targetPoint" />
          </mxGeometry>
        </mxCell>
        <mxCell id="CGVAX78Kewyjuci-cvpp-98" value="3、需求拆解新增任务" style="text;html=1;align=center;verticalAlign=middle;resizable=0;points=[];autosize=1;strokeColor=none;fillColor=none;" vertex="1" parent="1">
          <mxGeometry x="577.5" y="-1580" width="140" height="30" as="geometry" />
        </mxCell>
        <mxCell id="CGVAX78Kewyjuci-cvpp-99" value="" style="endArrow=classic;html=1;rounded=0;entryX=0.027;entryY=0.383;entryDx=0;entryDy=0;entryPerimeter=0;exitX=1;exitY=0.3333333333333333;exitDx=0;exitDy=0;exitPerimeter=0;" edge="1" parent="1" source="CGVAX78Kewyjuci-cvpp-90" target="CGVAX78Kewyjuci-cvpp-84">
          <mxGeometry width="50" height="50" relative="1" as="geometry">
            <mxPoint x="970" y="-1400" as="sourcePoint" />
            <mxPoint x="1020" y="-1450" as="targetPoint" />
          </mxGeometry>
        </mxCell>
        <mxCell id="CGVAX78Kewyjuci-cvpp-100" value="4、流程开发" style="text;html=1;align=center;verticalAlign=middle;resizable=0;points=[];autosize=1;strokeColor=none;fillColor=none;" vertex="1" parent="1">
          <mxGeometry x="960" y="-1480" width="90" height="30" as="geometry" />
        </mxCell>
        <mxCell id="CGVAX78Kewyjuci-cvpp-101" style="edgeStyle=orthogonalEdgeStyle;rounded=0;orthogonalLoop=1;jettySize=auto;html=1;entryX=0.35;entryY=0.933;entryDx=0;entryDy=0;entryPerimeter=0;" edge="1" parent="1" source="CGVAX78Kewyjuci-cvpp-90" target="CGVAX78Kewyjuci-cvpp-88">
          <mxGeometry relative="1" as="geometry" />
        </mxCell>
        <mxCell id="CGVAX78Kewyjuci-cvpp-102" value="5、关联流程" style="text;html=1;align=center;verticalAlign=middle;resizable=0;points=[];autosize=1;strokeColor=none;fillColor=none;" vertex="1" parent="1">
          <mxGeometry x="687.5" y="-1480" width="90" height="30" as="geometry" />
        </mxCell>
        <mxCell id="CGVAX78Kewyjuci-cvpp-103" value="系统管理" style="rounded=0;whiteSpace=wrap;html=1;fillColor=#fff2cc;strokeColor=#d6b656;" vertex="1" parent="1">
          <mxGeometry x="-220" y="-1495" width="120" height="60" as="geometry" />
        </mxCell>
        <mxCell id="CGVAX78Kewyjuci-cvpp-104" value="仿真云管理员" style="shape=umlActor;verticalLabelPosition=bottom;verticalAlign=top;html=1;outlineConnect=0;fillColor=#dae8fc;strokeColor=#6c8ebf;" vertex="1" parent="1">
          <mxGeometry x="-190" y="-1335" width="30" height="60" as="geometry" />
        </mxCell>
        <mxCell id="CGVAX78Kewyjuci-cvpp-105" style="edgeStyle=orthogonalEdgeStyle;rounded=0;orthogonalLoop=1;jettySize=auto;html=1;entryX=0.387;entryY=0.953;entryDx=0;entryDy=0;entryPerimeter=0;" edge="1" parent="1" source="CGVAX78Kewyjuci-cvpp-104" target="CGVAX78Kewyjuci-cvpp-103">
          <mxGeometry relative="1" as="geometry" />
        </mxCell>
        <mxCell id="CGVAX78Kewyjuci-cvpp-106" value="0.1、配置角色桌面" style="text;html=1;align=center;verticalAlign=middle;resizable=0;points=[];autosize=1;strokeColor=none;fillColor=none;" vertex="1" parent="1">
          <mxGeometry x="-182.5" y="-1385" width="120" height="30" as="geometry" />
        </mxCell>
        <mxCell id="CGVAX78Kewyjuci-cvpp-107" value="角色桌面" style="text;html=1;align=center;verticalAlign=middle;resizable=0;points=[];autosize=1;strokeColor=#d6b656;fillColor=#fff2cc;" vertex="1" parent="1">
          <mxGeometry x="-47.5" y="-542.5" width="70" height="30" as="geometry" />
        </mxCell>
        <mxCell id="CGVAX78Kewyjuci-cvpp-108" value="流程引擎" style="rounded=0;whiteSpace=wrap;html=1;" vertex="1" parent="1">
          <mxGeometry x="-42.5" y="-254.5" width="120" height="130" as="geometry" />
        </mxCell>
        <mxCell id="CGVAX78Kewyjuci-cvpp-109" value="4、发布" style="text;html=1;align=center;verticalAlign=middle;resizable=0;points=[];autosize=1;strokeColor=none;fillColor=none;" vertex="1" parent="1">
          <mxGeometry x="-185" y="-220" width="70" height="30" as="geometry" />
        </mxCell>
        <mxCell id="CGVAX78Kewyjuci-cvpp-110" style="edgeStyle=orthogonalEdgeStyle;rounded=0;orthogonalLoop=1;jettySize=auto;html=1;" edge="1" parent="1" source="CGVAX78Kewyjuci-cvpp-111" target="CGVAX78Kewyjuci-cvpp-112">
          <mxGeometry relative="1" as="geometry" />
        </mxCell>
        <mxCell id="CGVAX78Kewyjuci-cvpp-111" value="流程引擎-设计态" style="rounded=0;whiteSpace=wrap;html=1;" vertex="1" parent="1">
          <mxGeometry x="-360" y="1040" width="120" height="60" as="geometry" />
        </mxCell>
        <mxCell id="CGVAX78Kewyjuci-cvpp-112" value="流程引擎" style="rounded=0;whiteSpace=wrap;html=1;" vertex="1" parent="1">
          <mxGeometry x="-72.5" y="1040" width="120" height="60" as="geometry" />
        </mxCell>
        <mxCell id="CGVAX78Kewyjuci-cvpp-113" value="发布" style="text;html=1;align=center;verticalAlign=middle;resizable=0;points=[];autosize=1;strokeColor=none;fillColor=none;" vertex="1" parent="1">
          <mxGeometry x="-240" y="1040" width="50" height="30" as="geometry" />
        </mxCell>
        <mxCell id="CGVAX78Kewyjuci-cvpp-114" value="系统管理" style="rounded=0;whiteSpace=wrap;html=1;fillColor=#fff2cc;strokeColor=#d6b656;" vertex="1" parent="1">
          <mxGeometry x="397.5" y="-647" width="120" height="60" as="geometry" />
        </mxCell>
        <mxCell id="CGVAX78Kewyjuci-cvpp-115" value="项目管理" style="rounded=0;whiteSpace=wrap;html=1;fillColor=#fff2cc;strokeColor=#d6b656;" vertex="1" parent="1">
          <mxGeometry x="395" y="-567" width="120" height="60" as="geometry" />
        </mxCell>
        <mxCell id="CGVAX78Kewyjuci-cvpp-116" value="需求管理" style="rounded=0;whiteSpace=wrap;html=1;fillColor=#fff2cc;strokeColor=#d6b656;" vertex="1" parent="1">
          <mxGeometry x="395" y="-489.5" width="115" height="45" as="geometry" />
        </mxCell>
        <mxCell id="CGVAX78Kewyjuci-cvpp-117" value="仿真任务管理" style="rounded=0;whiteSpace=wrap;html=1;fillColor=#fff2cc;strokeColor=#d6b656;" vertex="1" parent="1">
          <mxGeometry x="390" y="-314.5" width="120" height="60" as="geometry" />
        </mxCell>
        <mxCell id="CGVAX78Kewyjuci-cvpp-118" style="edgeStyle=orthogonalEdgeStyle;rounded=0;orthogonalLoop=1;jettySize=auto;html=1;entryX=1;entryY=0.5;entryDx=0;entryDy=0;" edge="1" parent="1" source="CGVAX78Kewyjuci-cvpp-119" target="CGVAX78Kewyjuci-cvpp-108">
          <mxGeometry relative="1" as="geometry" />
        </mxCell>
        <mxCell id="CGVAX78Kewyjuci-cvpp-119" value="流程管理" style="rounded=0;whiteSpace=wrap;html=1;fillColor=#fff2cc;strokeColor=#d6b656;" vertex="1" parent="1">
          <mxGeometry x="390" y="-217.81" width="115" height="55.62" as="geometry" />
        </mxCell>
        <mxCell id="CGVAX78Kewyjuci-cvpp-120" value="租户管理" style="rounded=0;whiteSpace=wrap;html=1;" vertex="1" parent="1">
          <mxGeometry x="-10" y="-400" width="140" height="120" as="geometry" />
        </mxCell>
        <mxCell id="CGVAX78Kewyjuci-cvpp-121" value="租户配置" style="text;html=1;align=center;verticalAlign=middle;resizable=0;points=[];autosize=1;strokeColor=#d6b656;fillColor=#fff2cc;" vertex="1" parent="1">
          <mxGeometry x="-9.349999999999994" y="-310" width="70" height="30" as="geometry" />
        </mxCell>
        <mxCell id="CGVAX78Kewyjuci-cvpp-122" value="&lt;font style=&quot;font-size: 36px;&quot;&gt;&lt;b&gt;服务&lt;/b&gt;&lt;/font&gt;" style="text;html=1;align=center;verticalAlign=middle;resizable=0;points=[];autosize=1;strokeColor=none;fillColor=none;" vertex="1" parent="1">
          <mxGeometry x="362.5" y="-805" width="100" height="60" as="geometry" />
        </mxCell>
        <mxCell id="CGVAX78Kewyjuci-cvpp-123" value="仿真云管理员" style="shape=umlActor;verticalLabelPosition=bottom;verticalAlign=top;html=1;outlineConnect=0;" vertex="1" parent="1">
          <mxGeometry x="187.5" y="-1150" width="30" height="60" as="geometry" />
        </mxCell>
        <mxCell id="CGVAX78Kewyjuci-cvpp-124" value="仿真云运维" style="shape=umlActor;verticalLabelPosition=bottom;verticalAlign=top;html=1;outlineConnect=0;" vertex="1" parent="1">
          <mxGeometry x="-460" y="-240.75" width="30" height="60" as="geometry" />
        </mxCell>
        <mxCell id="CGVAX78Kewyjuci-cvpp-125" value="仿真云开发人员" style="shape=umlActor;verticalLabelPosition=bottom;verticalAlign=top;html=1;outlineConnect=0;" vertex="1" parent="1">
          <mxGeometry x="-370" y="-900" width="30" height="60" as="geometry" />
        </mxCell>
        <mxCell id="CGVAX78Kewyjuci-cvpp-126" value="" style="endArrow=none;dashed=1;html=1;dashPattern=1 3;strokeWidth=2;rounded=0;exitX=0.957;exitY=0.009;exitDx=0;exitDy=0;exitPerimeter=0;entryX=0.082;entryY=1.01;entryDx=0;entryDy=0;entryPerimeter=0;" edge="1" parent="1" source="CGVAX78Kewyjuci-cvpp-54">
          <mxGeometry width="50" height="50" relative="1" as="geometry">
            <mxPoint x="100" y="-1040" as="sourcePoint" />
            <mxPoint x="98.07999999999993" y="-1206" as="targetPoint" />
          </mxGeometry>
        </mxCell>
        <mxCell id="CGVAX78Kewyjuci-cvpp-127" value="平台管理员" style="shape=umlActor;verticalLabelPosition=bottom;verticalAlign=top;html=1;outlineConnect=0;" vertex="1" parent="1">
          <mxGeometry x="137.5" y="940" width="30" height="60" as="geometry" />
        </mxCell>
        <mxCell id="CGVAX78Kewyjuci-cvpp-128" value="平台开发人员" style="shape=umlActor;verticalLabelPosition=bottom;verticalAlign=top;html=1;outlineConnect=0;" vertex="1" parent="1">
          <mxGeometry x="-500" y="765" width="30" height="60" as="geometry" />
        </mxCell>
        <mxCell id="CGVAX78Kewyjuci-cvpp-129" value="资源管理" style="rounded=0;whiteSpace=wrap;html=1;fillColor=#f8cecc;strokeColor=#b85450;" vertex="1" parent="1">
          <mxGeometry x="583" y="-410" width="127" height="80" as="geometry" />
        </mxCell>
        <mxCell id="CGVAX78Kewyjuci-cvpp-130" value="HPC" style="text;html=1;align=center;verticalAlign=middle;resizable=0;points=[];autosize=1;strokeColor=#d6b656;fillColor=#fff2cc;" vertex="1" parent="1">
          <mxGeometry x="622.5" y="-360" width="50" height="30" as="geometry" />
        </mxCell>
        <mxCell id="CGVAX78Kewyjuci-cvpp-131" value="5、自动订阅" style="text;html=1;align=center;verticalAlign=middle;resizable=0;points=[];autosize=1;strokeColor=none;fillColor=none;" vertex="1" parent="1">
          <mxGeometry x="90" y="-462.5" width="90" height="30" as="geometry" />
        </mxCell>
        <mxCell id="CGVAX78Kewyjuci-cvpp-132" value="3、API开发" style="text;html=1;align=center;verticalAlign=middle;resizable=0;points=[];autosize=1;strokeColor=none;fillColor=none;" vertex="1" parent="1">
          <mxGeometry x="-412.5" y="-690" width="90" height="30" as="geometry" />
        </mxCell>
        <mxCell id="CGVAX78Kewyjuci-cvpp-133" value="页面开发" style="text;html=1;align=center;verticalAlign=middle;resizable=0;points=[];autosize=1;strokeColor=#666666;fillColor=#f5f5f5;fontColor=#333333;" vertex="1" parent="1">
          <mxGeometry x="-330" y="-550" width="70" height="30" as="geometry" />
        </mxCell>
        <mxCell id="CGVAX78Kewyjuci-cvpp-134" value="流程配置" style="text;html=1;align=center;verticalAlign=middle;resizable=0;points=[];autosize=1;strokeColor=#d6b656;fillColor=#fff2cc;" vertex="1" parent="1">
          <mxGeometry x="-282.5" y="-180.75" width="70" height="30" as="geometry" />
        </mxCell>
        <mxCell id="CGVAX78Kewyjuci-cvpp-135" value="3、流程开发" style="text;html=1;align=center;verticalAlign=middle;resizable=0;points=[];autosize=1;strokeColor=none;fillColor=none;" vertex="1" parent="1">
          <mxGeometry x="-420" y="-214.5" width="90" height="30" as="geometry" />
        </mxCell>
        <mxCell id="CGVAX78Kewyjuci-cvpp-136" value="系统管理" style="rounded=0;whiteSpace=wrap;html=1;" vertex="1" parent="1">
          <mxGeometry x="230" y="940" width="160" height="190" as="geometry" />
        </mxCell>
        <mxCell id="CGVAX78Kewyjuci-cvpp-137" value="平台配置" style="text;html=1;align=center;verticalAlign=middle;resizable=0;points=[];autosize=1;strokeColor=#d6b656;fillColor=#fff2cc;" vertex="1" parent="1">
          <mxGeometry x="230" y="1100" width="70" height="30" as="geometry" />
        </mxCell>
        <mxCell id="CGVAX78Kewyjuci-cvpp-138" value="" style="endArrow=none;dashed=1;html=1;dashPattern=1 3;strokeWidth=2;rounded=0;entryX=0.55;entryY=1;entryDx=0;entryDy=0;entryPerimeter=0;exitX=0.393;exitY=0.006;exitDx=0;exitDy=0;exitPerimeter=0;" edge="1" parent="1" source="CGVAX78Kewyjuci-cvpp-6" target="CGVAX78Kewyjuci-cvpp-48">
          <mxGeometry width="50" height="50" relative="1" as="geometry">
            <mxPoint x="960" y="180" as="sourcePoint" />
            <mxPoint x="1010" y="130" as="targetPoint" />
          </mxGeometry>
        </mxCell>
        <mxCell id="CGVAX78Kewyjuci-cvpp-139" value="&lt;b&gt;&lt;font color=&quot;#f75959&quot; style=&quot;font-size: 24px;&quot;&gt;12.31本次项目共用&lt;/font&gt;&lt;/b&gt;" style="text;html=1;align=center;verticalAlign=middle;resizable=0;points=[];autosize=1;strokeColor=none;fillColor=none;" vertex="1" parent="1">
          <mxGeometry x="940" y="90" width="230" height="40" as="geometry" />
        </mxCell>
        <mxCell id="CGVAX78Kewyjuci-cvpp-140" value="资源管理" style="rounded=0;whiteSpace=wrap;html=1;fillColor=#fff2cc;strokeColor=#d6b656;" vertex="1" parent="1">
          <mxGeometry x="-390" y="-1495" width="120" height="60" as="geometry" />
        </mxCell>
        <mxCell id="CGVAX78Kewyjuci-cvpp-141" style="edgeStyle=orthogonalEdgeStyle;rounded=0;orthogonalLoop=1;jettySize=auto;html=1;entryX=0.5;entryY=1;entryDx=0;entryDy=0;" edge="1" parent="1" source="CGVAX78Kewyjuci-cvpp-142" target="CGVAX78Kewyjuci-cvpp-140">
          <mxGeometry relative="1" as="geometry" />
        </mxCell>
        <mxCell id="CGVAX78Kewyjuci-cvpp-142" value="仿真云运维" style="shape=umlActor;verticalLabelPosition=bottom;verticalAlign=top;html=1;outlineConnect=0;fillColor=#f8cecc;strokeColor=#b85450;" vertex="1" parent="1">
          <mxGeometry x="-345" y="-1335" width="30" height="60" as="geometry" />
        </mxCell>
        <mxCell id="CGVAX78Kewyjuci-cvpp-143" value="资源管理" style="text;html=1;align=center;verticalAlign=middle;resizable=0;points=[];autosize=1;strokeColor=#d6b656;fillColor=#fff2cc;" vertex="1" parent="1">
          <mxGeometry x="-9.349999999999994" y="-400" width="70" height="30" as="geometry" />
        </mxCell>
        <mxCell id="CGVAX78Kewyjuci-cvpp-144" value="仿真云运维" style="shape=umlActor;verticalLabelPosition=bottom;verticalAlign=top;html=1;outlineConnect=0;" vertex="1" parent="1">
          <mxGeometry x="-195" y="-380" width="30" height="60" as="geometry" />
        </mxCell>
        <mxCell id="CGVAX78Kewyjuci-cvpp-145" value="1、资源配置" style="text;html=1;align=center;verticalAlign=middle;resizable=0;points=[];autosize=1;strokeColor=none;fillColor=none;" vertex="1" parent="1">
          <mxGeometry x="-105" y="-395" width="90" height="30" as="geometry" />
        </mxCell>
        <mxCell id="CGVAX78Kewyjuci-cvpp-146" value="2、租户配置" style="text;html=1;align=center;verticalAlign=middle;resizable=0;points=[];autosize=1;strokeColor=none;fillColor=none;" vertex="1" parent="1">
          <mxGeometry x="-105" y="-314.5" width="90" height="30" as="geometry" />
        </mxCell>
        <mxCell id="CGVAX78Kewyjuci-cvpp-147" value="角色桌面配置" style="text;html=1;align=center;verticalAlign=middle;resizable=0;points=[];autosize=1;strokeColor=none;fillColor=none;" vertex="1" parent="1">
          <mxGeometry x="90" y="-1135" width="100" height="30" as="geometry" />
        </mxCell>
        <mxCell id="CGVAX78Kewyjuci-cvpp-148" value="0.2、配置资源" style="text;html=1;align=center;verticalAlign=middle;resizable=0;points=[];autosize=1;strokeColor=none;fillColor=none;" vertex="1" parent="1">
          <mxGeometry x="-340" y="-1380" width="100" height="30" as="geometry" />
        </mxCell>
        <mxCell id="CGVAX78Kewyjuci-cvpp-149" value="RBAC" style="text;html=1;align=center;verticalAlign=middle;resizable=0;points=[];autosize=1;strokeColor=#d6b656;fillColor=#fff2cc;" vertex="1" parent="1">
          <mxGeometry x="337.5" y="25" width="60" height="30" as="geometry" />
        </mxCell>
        <mxCell id="CGVAX78Kewyjuci-cvpp-150" value="认证" style="rounded=0;whiteSpace=wrap;html=1;" vertex="1" parent="1">
          <mxGeometry x="-485" y="220" width="1230" height="80" as="geometry" />
        </mxCell>
        <mxCell id="CGVAX78Kewyjuci-cvpp-151" value="RBAC" style="text;html=1;align=center;verticalAlign=middle;resizable=0;points=[];autosize=1;strokeColor=#d6b656;fillColor=#fff2cc;" vertex="1" parent="1">
          <mxGeometry x="342.5" y="245" width="60" height="30" as="geometry" />
        </mxCell>
        <mxCell id="CGVAX78Kewyjuci-cvpp-152" value="" style="endArrow=none;dashed=1;html=1;dashPattern=1 3;strokeWidth=2;rounded=0;entryX=0.57;entryY=0.967;entryDx=0;entryDy=0;entryPerimeter=0;exitX=0.566;exitY=-0.008;exitDx=0;exitDy=0;exitPerimeter=0;" edge="1" parent="1" source="CGVAX78Kewyjuci-cvpp-150" target="CGVAX78Kewyjuci-cvpp-2">
          <mxGeometry width="50" height="50" relative="1" as="geometry">
            <mxPoint x="190" y="180" as="sourcePoint" />
            <mxPoint x="240" y="130" as="targetPoint" />
          </mxGeometry>
        </mxCell>
        <mxCell id="CGVAX78Kewyjuci-cvpp-153" value="按需开发按需打包" style="text;html=1;align=center;verticalAlign=middle;resizable=0;points=[];autosize=1;strokeColor=none;fillColor=none;" vertex="1" parent="1">
          <mxGeometry x="1160" y="95" width="120" height="30" as="geometry" />
        </mxCell>
        <mxCell id="CGVAX78Kewyjuci-cvpp-154" value="业务日志" style="rounded=0;whiteSpace=wrap;html=1;fillColor=#f5f5f5;fontColor=#333333;strokeColor=#666666;" vertex="1" parent="1">
          <mxGeometry x="1035" y="480" width="120" height="60" as="geometry" />
        </mxCell>
        <mxCell id="CGVAX78Kewyjuci-cvpp-155" value="工单服务" style="rounded=0;whiteSpace=wrap;html=1;fillColor=#f5f5f5;fontColor=#333333;strokeColor=#666666;" vertex="1" parent="1">
          <mxGeometry x="1037.5" y="865" width="120" height="60" as="geometry" />
        </mxCell>
        <mxCell id="CGVAX78Kewyjuci-cvpp-156" value="数据字典" style="text;html=1;align=center;verticalAlign=middle;resizable=0;points=[];autosize=1;strokeColor=#d6b656;fillColor=#fff2cc;" vertex="1" parent="1">
          <mxGeometry x="320" y="1100" width="70" height="30" as="geometry" />
        </mxCell>
        <mxCell id="CGVAX78Kewyjuci-cvpp-157" value="凭证管理" style="text;html=1;align=center;verticalAlign=middle;resizable=0;points=[];autosize=1;strokeColor=#d6b656;fillColor=#fff2cc;" vertex="1" parent="1">
          <mxGeometry x="320" y="1060" width="70" height="30" as="geometry" />
        </mxCell>
        <mxCell id="CGVAX78Kewyjuci-cvpp-158" value="工具管理" style="text;html=1;align=center;verticalAlign=middle;resizable=0;points=[];autosize=1;strokeColor=#d6b656;fillColor=#fff2cc;" vertex="1" parent="1">
          <mxGeometry x="617.5" y="-184.5" width="70" height="30" as="geometry" />
        </mxCell>
        <mxCell id="CGVAX78Kewyjuci-cvpp-159" value="脚本管理" style="text;html=1;align=center;verticalAlign=middle;resizable=0;points=[];autosize=1;strokeColor=#d6b656;fillColor=#fff2cc;" vertex="1" parent="1">
          <mxGeometry x="622.5" y="-284.5" width="70" height="30" as="geometry" />
        </mxCell>
        <mxCell id="CGVAX78Kewyjuci-cvpp-160" value="流程配置" style="text;html=1;align=center;verticalAlign=middle;resizable=0;points=[];autosize=1;strokeColor=none;fillColor=none;" vertex="1" parent="1">
          <mxGeometry x="165" y="-222" width="70" height="30" as="geometry" />
        </mxCell>
        <mxCell id="CGVAX78Kewyjuci-cvpp-161" value="" style="edgeStyle=orthogonalEdgeStyle;rounded=0;orthogonalLoop=1;jettySize=auto;html=1;entryX=0.56;entryY=0.95;entryDx=0;entryDy=0;entryPerimeter=0;" edge="1" parent="1" source="CGVAX78Kewyjuci-cvpp-162" target="CGVAX78Kewyjuci-cvpp-158">
          <mxGeometry relative="1" as="geometry">
            <mxPoint x="25" y="-50" as="targetPoint" />
            <Array as="points">
              <mxPoint x="25" y="-90" />
              <mxPoint x="657" y="-90" />
            </Array>
          </mxGeometry>
        </mxCell>
        <mxCell id="CGVAX78Kewyjuci-cvpp-162" value="节点管理" style="text;html=1;align=center;verticalAlign=middle;resizable=0;points=[];autosize=1;strokeColor=#d6b656;fillColor=#fff2cc;" vertex="1" parent="1">
          <mxGeometry x="-10" y="-160" width="70" height="30" as="geometry" />
        </mxCell>
        <mxCell id="CGVAX78Kewyjuci-cvpp-163" value="点工具调用" style="text;html=1;align=center;verticalAlign=middle;resizable=0;points=[];autosize=1;strokeColor=none;fillColor=none;" vertex="1" parent="1">
          <mxGeometry x="270" y="-92" width="80" height="30" as="geometry" />
        </mxCell>
        <mxCell id="CGVAX78Kewyjuci-cvpp-164" value="流程执行" style="text;html=1;align=center;verticalAlign=middle;resizable=0;points=[];autosize=1;strokeColor=#d6b656;fillColor=#fff2cc;" vertex="1" parent="1">
          <mxGeometry x="-9.349999999999909" y="-240.75" width="70" height="30" as="geometry" />
        </mxCell>
        <mxCell id="CGVAX78Kewyjuci-cvpp-165" value="&lt;font style=&quot;font-size: 18px;&quot;&gt;&lt;b&gt;管理中心&lt;/b&gt;&lt;/font&gt;" style="text;html=1;align=center;verticalAlign=middle;resizable=0;points=[];autosize=1;strokeColor=none;fillColor=none;" vertex="1" parent="1">
          <mxGeometry x="-630" y="-1610" width="100" height="40" as="geometry" />
        </mxCell>
        <mxCell id="CGVAX78Kewyjuci-cvpp-166" value="对象存储" style="rounded=0;whiteSpace=wrap;html=1;fillColor=#dae8fc;strokeColor=#6c8ebf;" vertex="1" parent="1">
          <mxGeometry x="805" y="-547" width="120" height="60" as="geometry" />
        </mxCell>
        <mxCell id="CGVAX78Kewyjuci-cvpp-167" value="" style="endArrow=classic;html=1;rounded=0;entryX=0.608;entryY=0.994;entryDx=0;entryDy=0;entryPerimeter=0;" edge="1" parent="1" source="CGVAX78Kewyjuci-cvpp-142" target="CGVAX78Kewyjuci-cvpp-89">
          <mxGeometry width="50" height="50" relative="1" as="geometry">
            <mxPoint x="-450" y="-1340" as="sourcePoint" />
            <mxPoint x="-400" y="-1390" as="targetPoint" />
          </mxGeometry>
        </mxCell>
        <mxCell id="CGVAX78Kewyjuci-cvpp-168" value="0.3、点工具注册" style="text;html=1;align=center;verticalAlign=middle;resizable=0;points=[];autosize=1;strokeColor=none;fillColor=none;" vertex="1" parent="1">
          <mxGeometry x="-500" y="-1380" width="110" height="30" as="geometry" />
        </mxCell>
        <mxCell id="CGVAX78Kewyjuci-cvpp-169" value="&lt;font style=&quot;font-size: 18px;&quot;&gt;&lt;b&gt;工作台&lt;/b&gt;&lt;/font&gt;" style="text;html=1;align=center;verticalAlign=middle;resizable=0;points=[];autosize=1;strokeColor=none;fillColor=none;" vertex="1" parent="1">
          <mxGeometry x="-47.5" y="-1610" width="80" height="40" as="geometry" />
        </mxCell>
      </root>
    </mxGraphModel>
  </diagram>
</mxfile>
